<svg width="113" height="165" viewBox="0 0 113 165" fill="none" xmlns="http://www.w3.org/2000/svg">
<path d="M23.8551 164.235V94.0681H98.0788V105.524H39.6067V121.991H84.2364V133.805H39.6067V152.779H98.5561L103.329 162.922C103.329 163.24 102.255 163.558 100.107 163.877C97.9594 164.115 94.2602 164.235 89.0096 164.235H23.8551Z" fill="#FCFCFC"/>
<path d="M38.8224 2.15354L58.2043 32.3032L73.2791 0L86.6327 35.9472L109.889 2.15354C109.889 2.15354 112.324 2.47837 112.043 4.30709L101.417 66.412C100.709 71.0118 96.7514 74.407 92.098 74.407H23.4194C18.7658 74.407 14.8082 71.0118 14.1006 66.412L0.0585857 4.30709C-0.22276 2.47837 0.511519 3.57826 2.21214 4.30709L25.9011 27.9961L38.8224 2.15354Z" fill="#FCFCFC"/>
</svg>
