<svg width="99" height="147" viewBox="0 0 99 147" fill="none" xmlns="http://www.w3.org/2000/svg">
<path d="M21.0706 146.127V84.1508H86.6306V94.2694H34.9836V108.815H74.4039V119.25H34.9836V136.009H87.0522L91.2682 144.968C91.2682 145.249 90.3196 145.53 88.4224 145.811C86.5252 146.022 83.2577 146.127 78.62 146.127H21.0706Z" fill="black"/>
<path d="M34.2909 2.47535L51.4104 29.1058L64.7256 0.573181L76.5205 32.3245L97.0626 2.47535C97.0626 2.47535 99.2133 2.76226 98.9647 4.37753L89.5788 59.2333C88.9538 63.2961 85.4582 66.295 81.3479 66.295H20.6858C16.5754 66.295 13.0797 63.2961 12.4547 59.2333L0.0517473 4.37753C-0.196759 2.76226 0.451812 3.73377 1.95392 4.37753L22.8778 25.3014L34.2909 2.47535Z" fill="black"/>
</svg>
