<svg width="92" height="86" viewBox="0 0 92 86" fill="none" xmlns="http://www.w3.org/2000/svg">
<path d="M38.1563 3.36092C35.6851 5.83218 34.7954 7.61149 34.7954 9.9839C34.7954 11.8621 34.4989 15.0253 34.2023 17.0023L33.5103 20.7586H16.8046H0L0.395402 27.6782C0.691954 33.2138 1.18621 34.9931 3.16322 37.069C5.43678 39.5402 5.73333 39.5402 19.4736 39.5402H33.5103L34.2023 44.0874C34.4989 46.6575 34.7954 50.6115 34.7954 52.9839V57.3333H17.4966H0.197701V67.2184V77.1034H11.3678C25.4046 77.1034 29.2598 76.4115 32.3241 73.5448C34.4 71.6667 34.7954 70.3816 34.7954 65.9333C34.7954 57.531 37.4644 56.7402 47.7448 61.8805C55.6529 65.8345 63.4621 76.9057 63.4621 84.2207C63.4621 85.8023 64.4506 86 72.8529 86C83.8253 86 84.2207 85.7034 82.4414 77.3011C78.6851 59.4092 62.9678 44.0874 44.977 40.5287C33.6092 38.354 34.7954 39.5402 34.7954 30.2483V21.9448L42.8023 21.5494C50.6115 21.2529 50.908 21.154 54.1701 17.5954C57.9264 13.4437 58.223 11.269 55.9494 6.32643C53.9724 2.27356 50.1172 0 45.0759 0C42.308 0 40.7264 0.790802 38.1563 3.36092Z" fill="#FAF9F6"/>
<path d="M60.5957 21.1541C55.6532 23.9219 54.1704 30.5449 57.5313 34.7954C58.5199 36.1793 62.375 39.2437 66.0325 41.6161L72.5566 45.8667L78.0923 43C86.0992 38.7495 91.1405 33.7081 91.1405 29.7541C91.1405 25.5035 89.7566 23.0322 86.198 21.2529C82.5405 19.3747 79.2785 19.3747 76.5107 21.3518C74.4348 22.7357 73.9405 22.7357 70.2831 21.3518C65.6371 19.4736 63.7589 19.3747 60.5957 21.1541Z" fill="#FAF9F6"/>
</svg>
