<svg width="64" height="72" viewBox="0 0 64 72" fill="none" xmlns="http://www.w3.org/2000/svg">
<path d="M6.62986 56.5291L31.9999 17.5305L57.3699 56.5291H6.62986Z" stroke="black" stroke-width="2.54167"/>
<path d="M30.1266 13.2521C29.0937 13.2521 28.3958 12.8892 28.0329 12.1634C27.67 11.4376 27.4885 10.6419 27.4885 9.77653C27.4885 9.46945 27.5025 9.14841 27.5304 8.81342C27.5863 8.4505 27.656 8.04572 27.7398 7.59905L30.2523 7.01281C30.1685 7.48739 30.0987 7.93405 30.0429 8.3528C30.015 8.74363 30.001 9.09258 30.001 9.39966C30.001 9.76257 30.0708 10.0417 30.2104 10.2372C30.35 10.4326 30.5454 10.5303 30.7966 10.5303C31.1316 10.5303 31.3968 10.3349 31.5923 9.94403C31.8156 9.5532 31.9272 8.79946 31.9272 7.6828V6.42657L34.356 5.67282V8.22717C34.356 8.53425 34.4118 8.7855 34.5235 8.98092C34.6631 9.17633 34.8724 9.27404 35.1516 9.27404C35.5424 9.27404 35.8076 9.16237 35.9472 8.93904C36.1147 8.68779 36.1985 8.39467 36.1985 8.05967C36.1985 7.58509 36.1426 7.11052 36.031 6.63594C35.9193 6.13344 35.7658 5.64491 35.5703 5.17033L37.8734 4.58408C38.1526 5.11449 38.3759 5.72866 38.5434 6.42657C38.7388 7.09656 38.8366 7.71072 38.8366 8.26905C38.8366 9.19029 38.5714 10.0278 38.0409 10.7815C37.5105 11.5073 36.6451 11.8703 35.4447 11.8703C34.691 11.8703 34.0489 11.6469 33.5185 11.2003C32.9881 10.7257 32.7229 10.1674 32.7229 9.52529L33.686 9.90216C33.686 10.8513 33.351 11.6469 32.681 12.289C32.0389 12.9311 31.1875 13.2521 30.1266 13.2521Z" fill="black"/>
</svg>
