<svg width="67" height="74" viewBox="0 0 67 74" fill="none" xmlns="http://www.w3.org/2000/svg">
<path d="M8.00887 57.4338L33.5 18.2489L58.9912 57.4338H8.00887Z" stroke="black" stroke-width="3"/>
<path d="M31.2747 12.8604C30.309 12.8604 29.6564 12.5211 29.3171 11.8424C28.9777 11.1638 28.8081 10.4199 28.8081 9.61069C28.8081 9.32357 28.8211 9.02339 28.8472 8.71017C28.8994 8.37084 28.9647 7.99236 29.043 7.57472L31.3922 7.02658C31.3139 7.47031 31.2486 7.88795 31.1964 8.27948C31.1703 8.64491 31.1573 8.97119 31.1573 9.25831C31.1573 9.59764 31.2225 9.85866 31.353 10.0414C31.4836 10.2241 31.6663 10.3155 31.9012 10.3155C32.2144 10.3155 32.4624 10.1327 32.6451 9.76731C32.8539 9.40187 32.9583 8.69712 32.9583 7.65303V6.47843L35.2292 5.77367V8.16202C35.2292 8.44914 35.2814 8.68406 35.3858 8.86678C35.5163 9.04949 35.7121 9.14085 35.9731 9.14085C36.3386 9.14085 36.5865 9.03644 36.717 8.82763C36.8737 8.59271 36.952 8.31863 36.952 8.00541C36.952 7.56167 36.8998 7.11793 36.7954 6.6742C36.6909 6.20436 36.5474 5.74757 36.3647 5.30383L38.5181 4.75569C38.7791 5.25163 38.9879 5.82588 39.1445 6.47843C39.3273 7.10488 39.4186 7.67913 39.4186 8.20117C39.4186 9.06255 39.1707 9.84561 38.6747 10.5504C38.1788 11.229 37.3696 11.5684 36.2472 11.5684C35.5424 11.5684 34.9421 11.3595 34.4462 10.9419C33.9502 10.4982 33.7022 9.97612 33.7022 9.37577L34.6028 9.72815C34.6028 10.6156 34.2895 11.3595 33.6631 11.9599C33.0627 12.5602 32.2666 12.8604 31.2747 12.8604Z" fill="black"/>
</svg>
