<svg width="40" height="45" viewBox="0 0 40 45" fill="none" xmlns="http://www.w3.org/2000/svg">
<path d="M4.52301 35.125L20 11.3338L35.477 35.125H4.52301Z" stroke="black" stroke-width="2"/>
<path d="M18.636 7.81599C18.044 7.81599 17.644 7.60799 17.436 7.19199C17.228 6.77599 17.124 6.31999 17.124 5.82399C17.124 5.64799 17.132 5.46399 17.148 5.27199C17.18 5.06399 17.22 4.83199 17.268 4.57599L18.708 4.23999C18.66 4.51199 18.62 4.76799 18.588 5.00799C18.572 5.23199 18.564 5.43199 18.564 5.60799C18.564 5.81599 18.604 5.97599 18.684 6.08799C18.764 6.19999 18.876 6.25599 19.02 6.25599C19.212 6.25599 19.364 6.14399 19.476 5.91999C19.604 5.69599 19.668 5.26399 19.668 4.62399V3.90399L21.06 3.47199V4.93599C21.06 5.11199 21.092 5.25599 21.156 5.36799C21.236 5.47999 21.356 5.53599 21.516 5.53599C21.74 5.53599 21.892 5.47199 21.972 5.34399C22.068 5.19999 22.116 5.03199 22.116 4.83999C22.116 4.56799 22.084 4.29599 22.02 4.02399C21.956 3.73599 21.868 3.45599 21.756 3.18399L23.076 2.84799C23.236 3.15199 23.364 3.50399 23.46 3.90399C23.572 4.28799 23.628 4.63999 23.628 4.95999C23.628 5.48799 23.476 5.96799 23.172 6.39999C22.868 6.81599 22.372 7.02399 21.684 7.02399C21.252 7.02399 20.884 6.89599 20.58 6.63999C20.276 6.36799 20.124 6.04799 20.124 5.67999L20.676 5.89599C20.676 6.43999 20.484 6.89599 20.1 7.26399C19.732 7.63199 19.244 7.81599 18.636 7.81599Z" fill="black"/>
</svg>
