<svg width="32" height="25" viewBox="0 0 32 25" fill="none" xmlns="http://www.w3.org/2000/svg">
<path d="M30.3368 14.7663C30.3103 15.0407 30.1048 15.4177 29.3792 15.7427C28.6684 16.0611 27.6037 16.2563 26.221 16.2825C23.4665 16.3347 19.6667 15.7135 15.4882 14.377C11.3097 13.0404 7.6214 11.2666 5.04207 9.50829C3.74732 8.62568 2.78324 7.78157 2.17481 7.0412C1.55377 6.28548 1.43142 5.80361 1.45797 5.52921C1.48452 5.2548 1.68998 4.87778 2.41558 4.5528C3.12645 4.23441 4.19109 4.0392 5.57378 4.01299C8.32828 3.96078 12.1281 4.58203 16.3066 5.91856C20.4851 7.25508 24.1734 9.02895 26.7527 10.7872C28.0475 11.6698 29.0116 12.514 29.62 13.2543C30.241 14.01 30.3634 14.4919 30.3368 14.7663Z" stroke="black" stroke-width="2"/>
<path d="M30.7086 5.45679C30.7087 5.45674 30.7086 5.45842 30.7077 5.46199C30.708 5.45863 30.7084 5.45685 30.7086 5.45679ZM30.6233 5.40435C30.6663 5.43914 30.6894 5.46583 30.7013 5.48262C30.6929 5.50533 30.6756 5.54387 30.6408 5.60155C30.5458 5.75859 30.361 5.9862 30.0429 6.27691C29.4073 6.8578 28.4082 7.53906 27.0791 8.26751C24.4359 9.7162 20.6924 11.2409 16.4831 12.4767C12.2738 13.7124 8.45655 14.4072 5.6969 14.5447C4.30926 14.6138 3.24304 14.5388 2.53921 14.3511C2.18697 14.2572 1.97211 14.1469 1.85479 14.0522C1.8117 14.0174 1.78863 13.9907 1.77678 13.9739C1.78512 13.9512 1.8024 13.9127 1.83728 13.855C1.93224 13.698 2.11709 13.4704 2.43518 13.1796C3.07076 12.5988 4.06982 11.9175 5.3989 11.189C8.04211 9.74036 11.7856 8.21563 15.995 6.9799C20.2043 5.74417 24.0215 5.04931 26.7812 4.91189C28.1688 4.84279 29.235 4.91775 29.9388 5.10543C30.2911 5.19936 30.5059 5.30963 30.6233 5.40435ZM1.76538 13.9536C1.76552 13.9536 1.76623 13.955 1.76708 13.9581C1.76567 13.9551 1.76524 13.9536 1.76538 13.9536ZM1.76948 13.9998C1.76935 13.9998 1.76949 13.9981 1.77032 13.9946C1.77004 13.9979 1.76962 13.9997 1.76948 13.9998ZM30.711 5.4985C30.7124 5.5014 30.7128 5.50291 30.7127 5.50295C30.7125 5.50299 30.7118 5.50153 30.711 5.4985Z" stroke="black" stroke-width="2"/>
<line x1="2" y1="21" x2="30.8" y2="21" stroke="black" stroke-width="2"/>
<line x1="12" y1="24" x2="31" y2="24" stroke="black" stroke-width="2"/>
</svg>
