<svg width="31" height="24" viewBox="0 0 31 24" fill="none" xmlns="http://www.w3.org/2000/svg">
<path d="M26.946 19.8463C26.9463 19.8465 26.9431 19.8477 26.9358 19.8494C26.9421 19.847 26.9458 19.8461 26.946 19.8463ZM26.2351 19.7148C26.2539 19.7397 26.272 19.7639 26.2895 19.7876C26.2646 19.7821 26.2389 19.7761 26.2125 19.7698C25.5132 19.6018 24.5032 19.2093 23.2353 18.5976C20.7133 17.3807 17.3265 15.3727 13.682 12.858C10.0376 10.3433 6.86174 7.82307 4.67557 5.79125C3.57651 4.76979 2.76187 3.90324 2.26444 3.24552C2.24564 3.22066 2.22751 3.19639 2.21005 3.1727C2.23498 3.17827 2.26066 3.18422 2.28709 3.19057C2.98632 3.35855 3.99632 3.75101 5.26421 4.36275C7.78622 5.57959 11.1731 7.58766 14.8175 10.1023C18.462 12.617 21.6378 15.1372 23.824 17.1691C24.923 18.1905 25.7377 19.0571 26.2351 19.7148ZM1.80655 2.5C1.80681 2.50016 1.80832 2.50455 1.81031 2.51268C1.80728 2.5039 1.80629 2.49984 1.80655 2.5ZM1.55354 3.11399C1.55329 3.1138 1.55645 3.1126 1.56378 3.11097C1.55745 3.11336 1.55379 3.11418 1.55354 3.11399ZM26.6892 20.4476C26.6923 20.4564 26.6933 20.4605 26.693 20.4603C26.6928 20.4602 26.6912 20.4558 26.6892 20.4476Z" stroke="black" stroke-width="2"/>
<path d="M28.9478 2.19793C28.9483 2.19763 28.9468 2.2037 28.9421 2.21705C28.945 2.20489 28.9474 2.19822 28.9478 2.19793ZM25.6438 4.39576C26.7705 3.78175 27.6924 3.353 28.3689 3.11798C27.881 3.75024 27.14 4.56002 26.1711 5.5068C24.0541 7.5757 20.973 10.1793 17.4323 12.8165C13.8915 15.4536 10.5938 17.6009 8.13155 18.9426C7.00477 19.5566 6.08288 19.9854 5.40637 20.2204C5.89431 19.5881 6.63534 18.7783 7.60416 17.8316C9.72123 15.7627 12.8023 13.159 16.343 10.5219C19.8838 7.88472 23.1815 5.7375 25.6438 4.39576ZM4.48457 20.418C4.48499 20.4177 4.49082 20.4183 4.50077 20.4209C4.48912 20.4197 4.48415 20.4184 4.48457 20.418ZM4.82748 21.1404C4.82702 21.1407 4.82848 21.1346 4.83323 21.1213C4.83031 21.1334 4.82793 21.1401 4.82748 21.1404ZM29.2746 2.9175C29.2862 2.91866 29.2912 2.91996 29.2907 2.92032C29.2903 2.92069 29.2845 2.9201 29.2746 2.9175Z" stroke="black" stroke-width="2"/>
</svg>
