<svg width="303" height="285" viewBox="0 0 303 285" fill="none" xmlns="http://www.w3.org/2000/svg">
<path d="M126.448 11.1379C118.259 19.3276 115.31 25.2241 115.31 33.0862C115.31 39.3103 114.328 49.7931 113.345 56.3448L111.052 68.7931H55.6897H0L1.31034 91.7241C2.2931 110.069 3.93103 115.966 10.4828 122.845C18.0172 131.034 19 131.034 64.5345 131.034H111.052L113.345 146.103C114.328 154.621 115.31 167.724 115.31 175.586V190H57.9828H0.655172V222.759V255.517H37.6724C84.1897 255.517 96.9655 253.224 107.121 243.724C114 237.5 115.31 233.241 115.31 218.5C115.31 190.655 124.155 188.034 158.224 205.069C184.431 218.172 210.31 254.862 210.31 279.103C210.31 284.345 213.586 285 241.431 285C277.793 285 279.103 284.017 273.207 256.172C260.759 196.879 208.672 146.103 149.052 134.31C111.379 127.103 115.31 131.034 115.31 100.241V72.7241L141.845 71.4138C167.724 70.431 168.707 70.1035 179.517 58.3103C191.966 44.5517 192.948 37.3448 185.414 20.9655C178.862 7.53449 166.086 2.68221e-06 149.379 2.68221e-06C140.207 2.68221e-06 134.966 2.62069 126.448 11.1379Z" fill="#232326"/>
<path d="M200.811 70.1034C184.432 79.2759 179.518 101.224 190.656 115.31C193.932 119.897 206.708 130.052 218.828 137.914L240.449 152L258.794 142.5C285.328 128.414 302.035 111.707 302.035 98.6034C302.035 84.5172 297.449 76.3276 285.656 70.431C273.535 64.2069 262.725 64.2069 253.553 70.7586C246.673 75.3448 245.035 75.3448 232.915 70.7586C217.518 64.5345 211.294 64.2069 200.811 70.1034Z" fill="#232326"/>
</svg>
